<?xml version="1.0" encoding="UTF-8" standalone="no"?>
<!-- Created with Inkscape (http://www.inkscape.org/) -->

<svg
   xmlns:dc="http://purl.org/dc/elements/1.1/"
   xmlns:cc="http://creativecommons.org/ns#"
   xmlns:rdf="http://www.w3.org/1999/02/22-rdf-syntax-ns#"
   xmlns:svg="http://www.w3.org/2000/svg"
   xmlns="http://www.w3.org/2000/svg"
   xmlns:sodipodi="http://sodipodi.sourceforge.net/DTD/sodipodi-0.dtd"
   xmlns:inkscape="http://www.inkscape.org/namespaces/inkscape"
   width="372.04724"
   height="262.20471"
   id="svg2"
   version="1.1"
   inkscape:version="0.48.3.1 r9886"
   sodipodi:docname="worp.svg.2013_11_10_15_10_35.0.svg"
   inkscape:export-filename="/home/ico/mnt/div/worp-large.png"
   inkscape:export-xdpi="120.95238"
   inkscape:export-ydpi="120.95238">
  <defs
     id="defs4" />
  <sodipodi:namedview
     id="base"
     pagecolor="#ffffff"
     bordercolor="#666666"
     borderopacity="1.0"
     inkscape:pageopacity="1"
     inkscape:pageshadow="2"
     inkscape:zoom="1.6745185"
     inkscape:cx="182.10139"
     inkscape:cy="91.128938"
     inkscape:document-units="px"
     inkscape:current-layer="layer1"
     showgrid="true"
     inkscape:window-width="1724"
     inkscape:window-height="1061"
     inkscape:window-x="0"
     inkscape:window-y="15"
     inkscape:window-maximized="0"
     showguides="true"
     inkscape:guide-bbox="true">
    <inkscape:grid
       type="xygrid"
       id="grid3795"
       empspacing="5"
       visible="true"
       enabled="false"
       snapvisiblegridlinesonly="true" />
  </sodipodi:namedview>
  <metadata
     id="metadata7">
    <rdf:RDF>
      <cc:Work
         rdf:about="">
        <dc:format>image/svg+xml</dc:format>
        <dc:type
           rdf:resource="http://purl.org/dc/dcmitype/StillImage" />
        <dc:title></dc:title>
      </cc:Work>
    </rdf:RDF>
  </metadata>
  <g
     inkscape:label="Layer 1"
     inkscape:groupmode="layer"
     id="layer1"
     transform="translate(0,-790.15744)">
    <path
       sodipodi:type="inkscape:offset"
       inkscape:radius="1.091979"
       inkscape:original="M 126.03125 862.125 C 109.63988 862.125 95.8125 875.52485 95.8125 891.375 C 95.8125 907.99832 109.2533 921.28125 126.03125 921.28125 C 142.57726 921.28125 156.1875 907.90942 156.1875 891.75 C 156.1875 875.43595 142.57726 862.125 126.03125 862.125 z M 126.03125 867.40625 C 139.32991 867.40625 150.40625 878.46778 150.40625 891.84375 C 150.40625 905.06509 139.32991 916.03125 126.03125 916.03125 C 112.57796 916.03125 101.59375 905.06186 101.59375 891.53125 C 101.59375 878.46455 112.80991 867.40625 126.03125 867.40625 z "
       style="font-size:77.31785583px;font-style:normal;font-variant:normal;font-weight:normal;font-stretch:normal;text-align:start;line-height:125%;letter-spacing:0px;word-spacing:0px;writing-mode:lr-tb;text-anchor:start;fill:#000000;fill-opacity:1;stroke:none;font-family:URW Gothic L;-inkscape-font-specification:URW Gothic L Book"
       id="path3856"
       d="m 126.03125,861.03125 c -16.98649,0 -31.3125,13.85852 -31.3125,30.34375 0,17.21193 13.95821,31 31.3125,31 17.13434,0 31.25,-13.85244 31.25,-30.625 0,-16.92138 -14.11834,-30.71875 -31.25,-30.71875 z m 0,7.46875 c 12.69314,0 23.28125,10.57061 23.28125,23.34375 0,12.61146 -10.58289,23.09375 -23.28125,23.09375 -12.85971,0 -23.34375,-10.46662 -23.34375,-23.40625 0,-12.44181 10.7313,-23.03125 23.34375,-23.03125 z"
       transform="translate(59.90236,35.470449)"
       inkscape:export-filename="/home/ico/mnt/div/worp-long.png"
       inkscape:export-xdpi="277.22"
       inkscape:export-ydpi="277.22" />
    <rect
       style="fill:#ffffff;stroke:none"
       id="rect2999"
       width="16.527493"
       height="8.8939848"
       x="150.26042"
       y="925.89996"
       inkscape:export-filename="/home/ico/mnt/div/worp-long.png"
       inkscape:export-xdpi="277.22"
       inkscape:export-ydpi="277.22" />
    <path
       style="color:#000000;fill:none;stroke:#ff6600;stroke-width:6.69999981;stroke-linecap:butt;stroke-linejoin:round;stroke-miterlimit:4;stroke-opacity:1;stroke-dasharray:none;stroke-dashoffset:0;marker:none;visibility:visible;display:inline;overflow:visible;enable-background:accumulate"
       d="m 84.149521,901.14523 c 5.443085,-26.09196 8.503986,-26.23584 12.101188,29.13695 2.32649,51.31197 9.253911,30.22603 13.368011,0 4.63627,-34.06228 8.92582,-35.21425 13.36799,0 3.15032,24.97338 8.16496,32.31644 13.36802,0 2.26148,-14.04619 8.64252,-15.04823 13.36801,0 19.67884,0 1160.14736,0.0663 1173.06386,0.0663"
       id="path3007"
       inkscape:connector-curvature="0"
       sodipodi:nodetypes="ccssscc"
       inkscape:export-filename="/home/ico/mnt/div/worp-long.png"
       inkscape:export-xdpi="277.22"
       inkscape:export-ydpi="277.22" />
    <path
       style="font-size:77.31785583px;font-style:normal;font-variant:normal;font-weight:normal;font-stretch:normal;text-align:start;line-height:125%;letter-spacing:0px;word-spacing:0px;writing-mode:lr-tb;text-anchor:start;fill:#000000;fill-opacity:1;stroke:none;font-family:URW Gothic L;-inkscape-font-specification:URW Gothic L Book"
       d="m 223.37712,896.93079 c -0.52542,0.0434 -0.97389,0.53531 -0.96875,1.0625 l 0,57.125 c -0.004,0.55729 0.50521,1.06605 1.0625,1.0625 l 5.75,0 c 0.55729,0.004 1.06605,-0.50521 1.0625,-1.0625 l 0,-50.90625 6.96875,0 c 5.95789,0 9.80878,0.63261 12.6875,2 3.46311,1.68107 5.40625,5.07011 5.40625,9.9375 0,3.08834 -0.67626,5.48776 -1.96875,7.28125 -1.28755,1.78664 -2.91034,1.68016 -5.57641,2.40633 -0.0102,0.003 -0.021,-0.003 -0.0312,0 -2.55169,0.65223 -6.18232,0.96875 -12.46875,0.96875 -0.77782,0.002 -1.30919,1.06427 -0.8438,1.6875 l 18.95141,27.24992 c 0.19242,0.26639 0.51515,0.43373 0.84375,0.4375 l 7.125,0 c 0.77781,-0.002 1.30914,-1.06428 0.84375,-1.6875 l -14.67016,-21.31242 c 4.80784,-0.78425 8.42259,-1.19366 11.13891,-4.00008 3.05032,-3.1515 4.59375,-7.51318 4.59375,-12.78125 0,-7.48682 -3.26453,-13.37116 -9.15625,-16.5625 -3.80337,-2.06704 -8.92057,-2.90625 -16.5,-2.90625 l -14.15625,0 c -0.0312,-10e-4 -0.0625,-10e-4 -0.0937,0 z"
       id="path3852"
       inkscape:connector-curvature="0"
       sodipodi:nodetypes="cccccccscsscccccccccsscsccc"
       inkscape:export-filename="/home/ico/mnt/div/worp-long.png"
       inkscape:export-xdpi="277.22"
       inkscape:export-ydpi="277.22" />
    <path
       sodipodi:type="inkscape:offset"
       inkscape:radius="0.73898071"
       inkscape:original="M 212.4375 863.15625 L 212.4375 920.28125 L 218.15625 920.28125 L 218.15625 897.15625 L 229.15625 897.15625 C 236.88803 897.15625 241.05195 896.14524 244.53125 893.59375 C 248.2425 890.88763 250.25 886.19026 250.25 880.46875 C 250.25 873.89674 247.76729 868.70774 243.4375 866.15625 C 239.88088 863.99136 235.56394 863.15625 228.21875 863.15625 L 212.4375 863.15625 z M 218.15625 868.3125 L 226.28125 868.3125 C 232.85326 868.3125 236.96172 868.87148 239.28125 870.03125 C 242.60592 871.73224 244.46875 875.36577 244.46875 880.46875 C 244.46875 884.87586 242.68807 888.43883 239.75 890.0625 C 237.35315 891.45422 234.00761 892 228.75 892 L 218.15625 892 L 218.15625 868.3125 z "
       style="font-size:77.31785583px;font-style:normal;font-variant:normal;font-weight:normal;font-stretch:normal;text-align:start;line-height:125%;letter-spacing:0px;word-spacing:0px;writing-mode:lr-tb;text-anchor:start;fill:#000000;fill-opacity:1;stroke:none;font-family:URW Gothic L;-inkscape-font-specification:URW Gothic L Book"
       id="path3854"
       d="m 212.375,862.40625 a 0.73905461,0.73905461 0 0 0 -0.6875,0.75 l 0,57.125 a 0.73905461,0.73905461 0 0 0 0.75,0.75 l 5.71875,0 a 0.73905461,0.73905461 0 0 0 0.75,-0.75 l 0,-22.375 10.25,0 c 7.7962,0 12.18154,-1.05604 15.8125,-3.71875 3.93769,-2.87123 6.03125,-7.82438 6.03125,-13.71875 0,-6.75812 -2.5866,-12.22625 -7.1875,-14.9375 -3.71138,-2.25909 -8.19255,-3.125 -15.59375,-3.125 l -15.78125,0 a 0.73905461,0.73905461 0 0 0 -0.0625,0 z m 6.53125,6.65625 7.375,0 c 6.53011,0 10.56396,0.57885 12.65625,1.625 3.04443,1.55761 4.78125,4.85811 4.78125,9.78125 0,4.20805 -1.66436,7.47406 -4.3125,8.9375 a 0.73905461,0.73905461 0 0 0 -0.0312,0.0312 c -2.21117,1.28391 -5.41853,1.8125 -10.625,1.8125 l -9.84375,0 0,-22.1875 z"
       transform="translate(57.419943,35.539793)"
       inkscape:export-filename="/home/ico/mnt/div/worp-long.png"
       inkscape:export-xdpi="277.22"
       inkscape:export-ydpi="277.22" />
    <path
       style="color:#000000;fill:#ffffff;fill-opacity:1;stroke:none;stroke-width:8;marker:none;visibility:visible;display:inline;overflow:visible;enable-background:accumulate"
       d="m 207.51222,926.86799 c 0.0557,2.30686 -0.32536,4.9735 -0.89577,6.86108 l 11.7363,-0.0431 c 0.59718,-2.31148 0.69822,-5.38051 0.69822,-6.81143 z"
       id="path4009-4"
       inkscape:connector-curvature="0"
       sodipodi:nodetypes="ccccc"
       inkscape:export-filename="/home/ico/mnt/div/worp-long.png"
       inkscape:export-xdpi="277.22"
       inkscape:export-ydpi="277.22" />
    <path
       style="color:#000000;fill:#000000;fill-opacity:1;stroke:none;stroke-width:8;marker:none;visibility:visible;display:inline;overflow:visible;enable-background:accumulate"
       d="m 209.20192,136.42229 c 0.0557,2.34671 -0.47466,5.54463 -1.04507,7.46483 l 8.31235,-0.28549 c 0.59718,-2.35142 0.69822,-5.66009 0.69822,-7.11573 z"
       id="path4009"
       inkscape:connector-curvature="0"
       transform="translate(0,790.15744)"
       sodipodi:nodetypes="ccccc"
       inkscape:export-filename="/home/ico/mnt/div/worp-long.png"
       inkscape:export-xdpi="277.22"
       inkscape:export-ydpi="277.22" />
  </g>
</svg>
